<?xml version="1.0" standalone="no"?>
<!DOCTYPE svg PUBLIC "-//W3C//DTD SVG 20010904//EN"
 "http://www.w3.org/TR/2001/REC-SVG-20010904/DTD/svg10.dtd">
<svg version="1.0" xmlns="http://www.w3.org/2000/svg"
 width="1024.000000pt" height="1024.000000pt" viewBox="0 0 1024.000000 1024.000000"
 preserveAspectRatio="xMidYMid meet">
<metadata>
Created by potrace 1.16, written by Peter Selinger 2001-2019
</metadata>
<g transform="translate(0.000000,1024.000000) scale(1.000000,-1.000000)"
fill="#ffffff" stroke="none">
<path fill="#ffffff" stroke="none" d="M475 861 c-41 -7 -77 -32 -100 -70 -4
-8 -12 -23 -12 -24 0 -1 22 -1 49 -1 l49 0 5 4 c14 11 23 13 51 13 24 0 33 -1
42 -6 12 -6 22 -18 26 -31 l2 -6 1 -95 0 -95 9 0 c5 0 25 0 44 0 l35 0 0 98
c0 91 -1 99 -2 107 -8 35 -28 65 -57 84 -19 13 -35 19 -56 22 -14 1 -75 1 -86
0z"/>
<path fill="#ffffff" stroke="none" d="M279 735 c-25 -4 -48 -16 -68 -35 -20
-21 -33 -46 -38 -74 -1 -8 -1 -15 -1 -40 1 -29 1 -30 4 -41 6 -22 18 -45 35
-62 14 -15 36 -29 55 -35 14 -5 24 -6 50 -6 l23 0 0 41 0 42 -19 0 c-16 1 -20
1 -25 3 -17 6 -30 20 -35 37 -1 6 -1 11 -1 30 1 21 1 24 3 29 4 11 14 20 25
25 l6 3 133 0 134 1 0 42 0 42 -136 0 c-111 0 -138 0 -145 -2z"/>
<path fill="#ffffff" stroke="none" d="M703 736 c-1 0 -1 -19 -1 -42 l0 -42
19 0 c22 -1 26 -2 37 -9 7 -5 11 -10 15 -19 l4 -6 0 -34 c0 -27 1 -34 2 -34 0
0 20 0 43 0 l41 0 0 37 c-1 32 -1 38 -3 46 -11 53 -53 93 -106 103 -8 1 -50 2
-51 0z"/>
<path fill="#ffffff" stroke="none" d="M363 530 l0 -88 113 0 112 0 0 -50 0
-50 44 0 44 0 0 91 0 91 -109 0 -109 0 0 47 0 46 -47 0 -48 0 0 -87z"/>
<path fill="#ffffff" stroke="none" d="M703 483 l0 -41 12 0 c21 0 35 -5 46
-16 7 -7 11 -14 14 -22 2 -7 3 -42 1 -52 -2 -18 -15 -32 -34 -38 l-6 -2 -127
-1 -127 0 -1 -42 0 -41 3 0 c6 -1 239 -1 254 0 20 1 33 5 50 14 34 17 61 51
69 85 3 14 4 22 4 48 0 26 -1 35 -4 49 -11 42 -45 79 -88 93 -15 5 -23 6 -45
7 l-21 0 0 -41z"/>
<path fill="#ffffff" stroke="none" d="M184 382 c0 -26 0 -36 2 -43 8 -46 40
-86 85 -103 14 -6 26 -7 48 -7 l20 0 0 42 0 43 -15 0 c-13 1 -15 1 -22 4 -13
5 -22 14 -27 26 -2 5 -3 8 -3 39 l0 33 -44 0 -44 0 0 -34z"/>
<path fill="#ffffff" stroke="none" d="M362 323 c0 -100 0 -100 6 -118 17 -51
61 -89 115 -99 7 -1 15 -1 40 -1 29 0 32 0 42 2 11 2 26 7 34 11 19 10 42 31
55 51 6 8 15 25 15 28 0 0 -22 0 -48 0 -49 0 -49 0 -59 -2 -10 -3 -12 -3 -36
-3 -28 0 -32 1 -43 6 -7 4 -16 12 -20 20 -6 11 -6 8 -6 106 l0 89 -47 0 -48 0
0 -90z"/>
</g>
</svg>
