<?xml version="1.0" standalone="no"?>
<svg xmlns="http://www.w3.org/2000/svg" viewBox="0 0 1136 142" width="1136" height="142">
<g transform="translate(0.000000,142.000000) scale(0.100000,-0.100000)"
fill="#FFFFFF" stroke="none">
<path d="M5598 1403 l-127 -4 -11 -39 c-13 -47 -4 -69 40 -100 36 -26 37 -40
6 -77 -29 -35 -36 -57 -90 -279 -24 -99 -42 -192 -39 -206 3 -15 16 -37 30
-50 23 -21 35 -23 186 -30 89 -3 183 -7 208 -7 29 -1 49 -6 52 -14 3 -7 -13
-87 -35 -178 -29 -121 -44 -169 -60 -181 -17 -15 -40 -18 -139 -18 -141 0
-140 -1 -116 102 10 38 15 74 11 79 -9 15 -200 11 -216 -4 -7 -8 -29 -77 -48
-155 -39 -161 -37 -183 20 -214 32 -17 56 -18 315 -16 265 3 282 4 320 25 48
25 90 68 104 104 25 68 133 530 134 578 3 87 -7 91 -254 102 -155 7 -207 12
-218 24 -13 12 -10 33 23 169 21 85 43 160 51 166 8 7 57 10 136 8 l124 -3 -3
-68 -2 -68 117 3 118 3 32 140 c30 128 31 141 17 163 -8 12 -27 28 -42 33 -29
12 -423 19 -644 12z M8415 1374 c-9 -22 -41 -133 -70 -249 -58 -228 -265
-1087 -265 -1099 0 -3 55 -5 122 -4 l122 3 108 440 c59 242 134 550 168 684
33 134 58 246 55 249 -3 3 -54 8 -114 10 l-110 5 -16 -39z M8836 1401 c-4 -5
-30 -123 -60 -263 -30 -139 -80 -361 -111 -493 -122 -517 -143 -610 -139 -617
8 -12 602 -10 609 2 13 22 56 183 50 189 -4 3 -83 8 -176 9 l-169 4 0 28 c0
23 62 285 86 362 5 15 23 18 156 20 l151 3 23 79 c13 44 24 86 24 93 0 10 -32
13 -145 13 -121 0 -147 3 -151 15 -6 15 63 323 77 347 6 10 57 14 191 18 l183
5 26 90 c14 50 24 93 22 98 -6 10 -641 9 -647 -2z M9615 1398 c-6 -18 -45
-175 -45 -182 0 -3 51 -7 113 -8 l112 -3 3 -26 c2 -15 -11 -82 -28 -150 -77
-307 -240 -982 -240 -995 0 -12 20 -14 117 -12 l117 3 49 195 c27 107 93 373
146 590 l97 395 124 5 124 5 21 70 c12 39 25 82 29 98 l6 27 -370 0 c-288 0
-372 -3 -375 -12z M10510 1403 c0 -26 43 -589 55 -738 l16 -180 -59 -227 c-33
-125 -57 -229 -54 -232 3 -4 56 -6 119 -6 109 0 114 1 122 23 5 12 34 121 66
242 32 121 66 238 77 259 28 54 308 542 412 717 l86 144 -117 3 c-64 1 -122 1
-128 -2 -11 -4 -67 -103 -245 -429 -30 -53 -59 -96 -64 -94 -8 3 -10 88 -9
265 l3 262 -140 0 c-77 0 -140 -3 -140 -7z M251 1369 c-18 -52 -13 -68 29
-106 22 -20 40 -40 40 -45 0 -5 -11 -24 -24 -41 -24 -31 -80 -212 -122 -390
-20 -89 -15 -118 29 -151 26 -19 45 -21 227 -26 131 -3 203 -9 211 -17 15 -15
-65 -342 -89 -361 -12 -9 -52 -12 -142 -10 l-125 3 1 35 c1 19 3 58 5 85 l4
50 -107 3 -106 3 -16 -48 c-26 -79 -56 -216 -56 -254 0 -25 7 -42 26 -60 l26
-24 286 -3 c246 -2 293 -1 329 13 50 19 100 66 119 111 23 54 144 542 144 579
0 44 -34 81 -81 89 -19 4 -111 10 -205 14 -94 5 -176 12 -182 16 -18 11 -15
43 18 183 39 164 38 163 177 163 138 0 146 -4 137 -81 l-7 -59 114 0 114 0 33
128 c18 70 32 137 32 149 0 12 -11 35 -24 50 l-24 28 -390 3 -390 3 -11 -32z
M1240 1299 c-17 -56 -29 -104 -25 -107 6 -7 37 -9 148 -11 l77 -1 0 -32 c0
-18 -11 -73 -24 -123 -117 -437 -256 -979 -256 -998 0 -16 10 -17 117 -15
l116 3 34 130 c182 698 274 1029 286 1037 6 4 62 8 124 8 l112 0 31 97 c16 54
30 101 30 105 0 4 -166 8 -369 8 l-369 0 -32 -101z M2140 1381 c-19 -37 -11
-64 33 -109 l42 -43 -53 -47 c-51 -45 -54 -51 -83 -152 -53 -190 -269 -1003
-269 -1014 0 -4 55 -5 122 -4 120 3 121 3 129 28 4 14 37 133 74 265 68 241
84 285 108 285 39 0 46 -24 92 -297 25 -149 45 -274 45 -277 0 -3 57 -6 126
-6 l127 0 -6 30 c-21 101 -77 544 -70 550 4 4 30 13 56 20 58 16 121 59 141
98 8 16 51 162 96 325 77 282 80 297 66 325 -8 16 -23 32 -31 36 -9 3 -178 6
-375 6 -345 0 -360 -1 -370 -19z m464 -197 c9 -3 16 -18 16 -33 0 -34 -78
-331 -91 -347 -9 -12 -207 -25 -241 -16 -24 6 -23 24 12 162 17 65 30 127 30
137 0 10 -14 26 -30 35 -36 20 -49 46 -29 59 16 10 308 12 333 3z M3049 1396
c-5 -6 4 -151 35 -578 l24 -318 -23 -82 c-80 -285 -105 -380 -105 -393 0 -12
21 -15 120 -15 l119 0 15 52 c8 29 40 142 70 251 l55 198 192 332 c106 183
221 380 255 438 35 58 64 109 64 112 0 4 -56 7 -124 7 l-123 0 -149 -265 c-81
-146 -154 -265 -162 -265 -11 0 -12 43 -6 265 l7 265 -130 0 c-71 0 -132 -2
-134 -4z M4006 1388 c-2 -7 -11 -87 -21 -178 -20 -201 -100 -923 -119 -1075
-7 -60 -12 -113 -9 -118 5 -8 247 -10 278 -1 15 4 63 96 190 362 93 196 242
504 332 684 90 180 163 330 163 333 0 3 -55 5 -123 5 l-124 0 -115 -237 c-101
-207 -224 -472 -271 -585 -31 -74 -60 -60 -45 22 20 107 115 785 111 793 -2 4
-58 7 -124 7 -87 0 -121 -3 -123 -12z M6602 1380 c-70 -32 -103 -60 -123 -106
-32 -70 -279 -1101 -279 -1158 1 -36 13 -55 55 -82 26 -17 52 -19 277 -22 158
-2 267 1 302 8 69 14 131 59 156 113 17 34 159 597 270 1068 27 110 23 138
-23 171 -31 23 -37 23 -312 26 -262 2 -283 1 -323 -18z m387 -203 c8 -10 -1
-60 -35 -198 -143 -583 -178 -716 -190 -736 -14 -22 -21 -23 -133 -23 -130 0
-151 4 -151 28 0 9 27 129 61 267 34 137 80 338 104 445 35 157 47 198 65 212
19 15 42 18 145 18 90 0 126 -4 134 -13z M7549 1372 c-93 -48 -96 -58 -235
-620 -146 -590 -151 -616 -130 -665 28 -67 48 -72 331 -72 262 0 296 5 350 47
14 11 34 37 45 59 20 38 80 266 80 301 0 16 -11 18 -114 18 l-114 0 -21 -83
c-36 -137 -29 -132 -155 -135 -123 -3 -140 4 -131 52 13 63 168 714 191 800
13 50 30 96 37 103 15 16 235 27 256 14 13 -8 13 -20 -3 -88 -10 -43 -21 -84
-24 -91 -3 -10 21 -12 114 -10 l119 3 42 145 c75 259 87 250 -305 250 l-280 0
-53 -28z"/>
</g>
</svg>
